<mxfile host="Electron" modified="2023-08-18T01:26:21.915Z" agent="5.0 (Windows NT 10.0; Win64; x64) AppleWebKit/537.36 (KHTML, like Gecko) draw.io/13.9.9 Chrome/85.0.4183.121 Electron/10.1.5 Safari/537.36" etag="SqeiC3ZjN5pwEiDMJIPP" compressed="false" version="13.9.9" type="device">
  <diagram id="PV-fBDcEj6Vxt_XMhLfw" name="第 1 页">
    <mxGraphModel dx="595" dy="344" grid="1" gridSize="10" guides="1" tooltips="1" connect="1" arrows="1" fold="1" page="1" pageScale="1" pageWidth="827" pageHeight="1169" background="none" math="0" shadow="0">
      <root>
        <mxCell id="0" />
        <mxCell id="1" parent="0" />
        <mxCell id="pVh214AK2odny3s-OQ3Z-9" style="edgeStyle=orthogonalEdgeStyle;rounded=0;orthogonalLoop=1;jettySize=auto;html=1;exitX=1;exitY=0.5;exitDx=0;exitDy=0;entryX=0;entryY=0.5;entryDx=0;entryDy=0;" edge="1" parent="1" source="pVh214AK2odny3s-OQ3Z-1" target="pVh214AK2odny3s-OQ3Z-2">
          <mxGeometry relative="1" as="geometry" />
        </mxCell>
        <mxCell id="pVh214AK2odny3s-OQ3Z-10" style="edgeStyle=orthogonalEdgeStyle;rounded=0;orthogonalLoop=1;jettySize=auto;html=1;exitX=1;exitY=0.5;exitDx=0;exitDy=0;entryX=0;entryY=0.5;entryDx=0;entryDy=0;" edge="1" parent="1" source="pVh214AK2odny3s-OQ3Z-1" target="pVh214AK2odny3s-OQ3Z-3">
          <mxGeometry relative="1" as="geometry" />
        </mxCell>
        <mxCell id="pVh214AK2odny3s-OQ3Z-11" style="edgeStyle=orthogonalEdgeStyle;rounded=0;orthogonalLoop=1;jettySize=auto;html=1;exitX=1;exitY=0.5;exitDx=0;exitDy=0;entryX=0;entryY=0.5;entryDx=0;entryDy=0;" edge="1" parent="1" source="pVh214AK2odny3s-OQ3Z-1" target="pVh214AK2odny3s-OQ3Z-4">
          <mxGeometry relative="1" as="geometry" />
        </mxCell>
        <mxCell id="pVh214AK2odny3s-OQ3Z-12" style="edgeStyle=orthogonalEdgeStyle;rounded=0;orthogonalLoop=1;jettySize=auto;html=1;exitX=1;exitY=0.5;exitDx=0;exitDy=0;entryX=0;entryY=0.5;entryDx=0;entryDy=0;" edge="1" parent="1" source="pVh214AK2odny3s-OQ3Z-1" target="pVh214AK2odny3s-OQ3Z-7">
          <mxGeometry relative="1" as="geometry" />
        </mxCell>
        <mxCell id="pVh214AK2odny3s-OQ3Z-13" style="edgeStyle=orthogonalEdgeStyle;rounded=0;orthogonalLoop=1;jettySize=auto;html=1;exitX=1;exitY=0.5;exitDx=0;exitDy=0;entryX=0;entryY=0.5;entryDx=0;entryDy=0;" edge="1" parent="1" source="pVh214AK2odny3s-OQ3Z-1" target="pVh214AK2odny3s-OQ3Z-5">
          <mxGeometry relative="1" as="geometry" />
        </mxCell>
        <mxCell id="pVh214AK2odny3s-OQ3Z-14" style="edgeStyle=orthogonalEdgeStyle;rounded=0;orthogonalLoop=1;jettySize=auto;html=1;exitX=1;exitY=0.5;exitDx=0;exitDy=0;entryX=0;entryY=0.5;entryDx=0;entryDy=0;" edge="1" parent="1" source="pVh214AK2odny3s-OQ3Z-1" target="pVh214AK2odny3s-OQ3Z-6">
          <mxGeometry relative="1" as="geometry" />
        </mxCell>
        <mxCell id="pVh214AK2odny3s-OQ3Z-1" value="深度医学图像描述办法" style="rounded=1;whiteSpace=wrap;html=1;" vertex="1" parent="1">
          <mxGeometry x="120" y="180" width="130" height="40" as="geometry" />
        </mxCell>
        <mxCell id="pVh214AK2odny3s-OQ3Z-23" value="" style="edgeStyle=orthogonalEdgeStyle;rounded=0;orthogonalLoop=1;jettySize=auto;html=1;" edge="1" parent="1" source="pVh214AK2odny3s-OQ3Z-2" target="pVh214AK2odny3s-OQ3Z-17">
          <mxGeometry relative="1" as="geometry" />
        </mxCell>
        <mxCell id="pVh214AK2odny3s-OQ3Z-2" value="编码器-解码器+模板&lt;span style=&quot;color: rgba(0 , 0 , 0 , 0) ; font-family: monospace ; font-size: 0px&quot;&gt;%3CmxGraphModel%3E%3Croot%3E%3CmxCell%20id%3D%220%22%2F%3E%3CmxCell%20id%3D%221%22%20parent%3D%220%22%2F%3E%3CmxCell%20id%3D%222%22%20value%3D%22%E7%BC%96%E7%A0%81%E5%99%A8-%E8%A7%A3%E7%A0%81%E5%99%A8%22%20style%3D%22rounded%3D0%3BwhiteSpace%3Dwrap%3Bhtml%3D1%3B%22%20vertex%3D%221%22%20parent%3D%221%22%3E%3CmxGeometry%20x%3D%22300%22%20y%3D%22150%22%20width%3D%22120%22%20height%3D%2240%22%20as%3D%22geometry%22%2F%3E%3C%2FmxCell%3E%3C%2Froot%3E%3C%2FmxGraphModel%3E&lt;/span&gt;" style="rounded=0;whiteSpace=wrap;html=1;" vertex="1" parent="1">
          <mxGeometry x="300" y="150" width="120" height="40" as="geometry" />
        </mxCell>
        <mxCell id="pVh214AK2odny3s-OQ3Z-24" value="" style="edgeStyle=orthogonalEdgeStyle;rounded=0;orthogonalLoop=1;jettySize=auto;html=1;" edge="1" parent="1" source="pVh214AK2odny3s-OQ3Z-3" target="pVh214AK2odny3s-OQ3Z-18">
          <mxGeometry relative="1" as="geometry" />
        </mxCell>
        <mxCell id="pVh214AK2odny3s-OQ3Z-3" value="编码器-解码器+注意力" style="rounded=0;whiteSpace=wrap;html=1;" vertex="1" parent="1">
          <mxGeometry x="300" y="210" width="120" height="40" as="geometry" />
        </mxCell>
        <mxCell id="pVh214AK2odny3s-OQ3Z-22" value="" style="edgeStyle=orthogonalEdgeStyle;rounded=0;orthogonalLoop=1;jettySize=auto;html=1;" edge="1" parent="1" source="pVh214AK2odny3s-OQ3Z-4" target="pVh214AK2odny3s-OQ3Z-16">
          <mxGeometry relative="1" as="geometry" />
        </mxCell>
        <mxCell id="pVh214AK2odny3s-OQ3Z-4" value="编码器-解码器" style="rounded=0;whiteSpace=wrap;html=1;" vertex="1" parent="1">
          <mxGeometry x="300" y="90" width="120" height="40" as="geometry" />
        </mxCell>
        <mxCell id="pVh214AK2odny3s-OQ3Z-25" value="" style="edgeStyle=orthogonalEdgeStyle;rounded=0;orthogonalLoop=1;jettySize=auto;html=1;" edge="1" parent="1" source="pVh214AK2odny3s-OQ3Z-5" target="pVh214AK2odny3s-OQ3Z-19">
          <mxGeometry relative="1" as="geometry" />
        </mxCell>
        <mxCell id="pVh214AK2odny3s-OQ3Z-5" value="编码器-解码器+强化学习" style="rounded=0;whiteSpace=wrap;html=1;" vertex="1" parent="1">
          <mxGeometry x="300" y="270" width="120" height="40" as="geometry" />
        </mxCell>
        <mxCell id="pVh214AK2odny3s-OQ3Z-26" value="" style="edgeStyle=orthogonalEdgeStyle;rounded=0;orthogonalLoop=1;jettySize=auto;html=1;" edge="1" parent="1" source="pVh214AK2odny3s-OQ3Z-6" target="pVh214AK2odny3s-OQ3Z-20">
          <mxGeometry relative="1" as="geometry" />
        </mxCell>
        <mxCell id="pVh214AK2odny3s-OQ3Z-6" value="编码器-解码器+知识图谱" style="rounded=0;whiteSpace=wrap;html=1;" vertex="1" parent="1">
          <mxGeometry x="300" y="330" width="120" height="40" as="geometry" />
        </mxCell>
        <mxCell id="pVh214AK2odny3s-OQ3Z-21" value="" style="edgeStyle=orthogonalEdgeStyle;rounded=0;orthogonalLoop=1;jettySize=auto;html=1;" edge="1" parent="1" source="pVh214AK2odny3s-OQ3Z-7" target="pVh214AK2odny3s-OQ3Z-15">
          <mxGeometry relative="1" as="geometry" />
        </mxCell>
        <mxCell id="pVh214AK2odny3s-OQ3Z-7" value="检索" style="rounded=0;whiteSpace=wrap;html=1;" vertex="1" parent="1">
          <mxGeometry x="300" y="30" width="120" height="40" as="geometry" />
        </mxCell>
        <mxCell id="pVh214AK2odny3s-OQ3Z-15" value="适用于医学影像报告低方差的特点" style="rounded=0;whiteSpace=wrap;html=1;" vertex="1" parent="1">
          <mxGeometry x="460" y="30" width="180" height="40" as="geometry" />
        </mxCell>
        <mxCell id="pVh214AK2odny3s-OQ3Z-16" value="实现了图像到文字的映射" style="rounded=0;whiteSpace=wrap;html=1;" vertex="1" parent="1">
          <mxGeometry x="460" y="90" width="180" height="40" as="geometry" />
        </mxCell>
        <mxCell id="pVh214AK2odny3s-OQ3Z-17" value="输出固定、不灵活，无法进行个性化报告生成" style="rounded=0;whiteSpace=wrap;html=1;" vertex="1" parent="1">
          <mxGeometry x="460" y="150" width="180" height="40" as="geometry" />
        </mxCell>
        <mxCell id="pVh214AK2odny3s-OQ3Z-18" value="模型能更好地关注图像和文本的某一部分，Transformer" style="rounded=0;whiteSpace=wrap;html=1;" vertex="1" parent="1">
          <mxGeometry x="460" y="210" width="180" height="40" as="geometry" />
        </mxCell>
        <mxCell id="pVh214AK2odny3s-OQ3Z-19" value="解决了离散语言生成评估指标与梯度下降训练不匹配的问题，但状态空间大，训练难度大" style="rounded=0;whiteSpace=wrap;html=1;" vertex="1" parent="1">
          <mxGeometry x="460" y="270" width="180" height="40" as="geometry" />
        </mxCell>
        <mxCell id="pVh214AK2odny3s-OQ3Z-20" value="引入了先验知识，提高临床准确性，但规模需要扩大" style="rounded=0;whiteSpace=wrap;html=1;" vertex="1" parent="1">
          <mxGeometry x="460" y="330" width="180" height="40" as="geometry" />
        </mxCell>
      </root>
    </mxGraphModel>
  </diagram>
</mxfile>
